<svg width="91" height="32" viewBox="0 0 91 32" fill="none" xmlns="http://www.w3.org/2000/svg">
<path d="M12.696 25L9.456 20.32H9.264H5.88V25H1.992V8.2H9.264C10.752 8.2 12.04 8.448 13.128 8.944C14.232 9.44 15.08 10.144 15.672 11.056C16.264 11.968 16.56 13.048 16.56 14.296C16.56 15.544 16.256 16.624 15.648 17.536C15.056 18.432 14.208 19.12 13.104 19.6L16.872 25H12.696ZM12.624 14.296C12.624 13.352 12.32 12.632 11.712 12.136C11.104 11.624 10.216 11.368 9.048 11.368H5.88V17.224H9.048C10.216 17.224 11.104 16.968 11.712 16.456C12.32 15.944 12.624 15.224 12.624 14.296ZM32.1244 18.592C32.1244 18.64 32.1004 18.976 32.0524 19.6H22.2844C22.4604 20.4 22.8764 21.032 23.5324 21.496C24.1884 21.96 25.0044 22.192 25.9804 22.192C26.6524 22.192 27.2444 22.096 27.7564 21.904C28.2844 21.696 28.7724 21.376 29.2204 20.944L31.2124 23.104C29.9964 24.496 28.2204 25.192 25.8844 25.192C24.4284 25.192 23.1404 24.912 22.0204 24.352C20.9004 23.776 20.0364 22.984 19.4284 21.976C18.8204 20.968 18.5164 19.824 18.5164 18.544C18.5164 17.28 18.8124 16.144 19.4044 15.136C20.0124 14.112 20.8364 13.32 21.8764 12.76C22.9324 12.184 24.1084 11.896 25.4044 11.896C26.6684 11.896 27.8124 12.168 28.8364 12.712C29.8604 13.256 30.6604 14.04 31.2364 15.064C31.8284 16.072 32.1244 17.248 32.1244 18.592ZM25.4284 14.728C24.5804 14.728 23.8684 14.968 23.2924 15.448C22.7164 15.928 22.3644 16.584 22.2364 17.416H28.5964C28.4684 16.6 28.1164 15.952 27.5404 15.472C26.9644 14.976 26.2604 14.728 25.4284 14.728ZM34.7171 7.192H38.4611V25H34.7171V7.192ZM54.8518 12.088L49.4038 25H45.5398L40.1158 12.088H43.9798L47.5558 20.872L51.2518 12.088H54.8518ZM56.4796 12.088H60.2236V25H56.4796V12.088ZM58.3516 10.288C57.6636 10.288 57.1036 10.088 56.6716 9.688C56.2396 9.288 56.0236 8.792 56.0236 8.2C56.0236 7.608 56.2396 7.112 56.6716 6.712C57.1036 6.312 57.6636 6.112 58.3516 6.112C59.0396 6.112 59.5996 6.304 60.0316 6.688C60.4636 7.072 60.6796 7.552 60.6796 8.128C60.6796 8.752 60.4636 9.272 60.0316 9.688C59.5996 10.088 59.0396 10.288 58.3516 10.288ZM68.1423 25.192C67.0703 25.192 66.0223 25.064 64.9983 24.808C63.9743 24.536 63.1583 24.2 62.5503 23.8L63.7983 21.112C64.3743 21.48 65.0703 21.784 65.8863 22.024C66.7023 22.248 67.5023 22.36 68.2863 22.36C69.8703 22.36 70.6623 21.968 70.6623 21.184C70.6623 20.816 70.4463 20.552 70.0143 20.392C69.5823 20.232 68.9183 20.096 68.0223 19.984C66.9663 19.824 66.0943 19.64 65.4063 19.432C64.7183 19.224 64.1183 18.856 63.6063 18.328C63.1103 17.8 62.8623 17.048 62.8623 16.072C62.8623 15.256 63.0943 14.536 63.5583 13.912C64.0383 13.272 64.7263 12.776 65.6223 12.424C66.5343 12.072 67.6063 11.896 68.8383 11.896C69.7503 11.896 70.6543 12 71.5503 12.208C72.4623 12.4 73.2143 12.672 73.8063 13.024L72.5583 15.688C71.4223 15.048 70.1823 14.728 68.8383 14.728C68.0383 14.728 67.4383 14.84 67.0383 15.064C66.6383 15.288 66.4383 15.576 66.4383 15.928C66.4383 16.328 66.6543 16.608 67.0863 16.768C67.5183 16.928 68.2063 17.08 69.1503 17.224C70.2063 17.4 71.0703 17.592 71.7423 17.8C72.4143 17.992 72.9983 18.352 73.4943 18.88C73.9903 19.408 74.2383 20.144 74.2383 21.088C74.2383 21.888 73.9983 22.6 73.5183 23.224C73.0383 23.848 72.3343 24.336 71.4063 24.688C70.4943 25.024 69.4063 25.192 68.1423 25.192ZM89.2963 18.592C89.2963 18.64 89.2723 18.976 89.2243 19.6H79.4563C79.6323 20.4 80.0483 21.032 80.7043 21.496C81.3603 21.96 82.1763 22.192 83.1523 22.192C83.8243 22.192 84.4163 22.096 84.9283 21.904C85.4563 21.696 85.9443 21.376 86.3923 20.944L88.3843 23.104C87.1683 24.496 85.3923 25.192 83.0563 25.192C81.6003 25.192 80.3123 24.912 79.1923 24.352C78.0723 23.776 77.2083 22.984 76.6003 21.976C75.9923 20.968 75.6883 19.824 75.6883 18.544C75.6883 17.28 75.9843 16.144 76.5763 15.136C77.1843 14.112 78.0083 13.32 79.0483 12.76C80.1043 12.184 81.2803 11.896 82.5763 11.896C83.8403 11.896 84.9843 12.168 86.0083 12.712C87.0323 13.256 87.8323 14.04 88.4083 15.064C89.0003 16.072 89.2963 17.248 89.2963 18.592ZM82.6003 14.728C81.7523 14.728 81.0403 14.968 80.4643 15.448C79.8883 15.928 79.5363 16.584 79.4083 17.416H85.7683C85.6403 16.6 85.2883 15.952 84.7123 15.472C84.1363 14.976 83.4323 14.728 82.6003 14.728Z" fill="#252B42"/>
</svg>
